<?xml version="1.0" encoding="utf-8"?>
<!-- Generator: Adobe Illustrator 25.2.0, SVG Export Plug-In . SVG Version: 6.00 Build 0)  -->
<svg version="1.1" id="Layer_1" xmlns="http://www.w3.org/2000/svg" xmlns:xlink="http://www.w3.org/1999/xlink" x="0px" y="0px"
	 viewBox="0 0 388 131" style="enable-background:new 0 0 388 131;" xml:space="preserve">
<style type="text/css">
	.st0{enable-background:new    ;}
	.st1{fill:#FFFFFF;}
</style>
<g>
	<g class="st0">
		<path class="st1" d="M135.3,56c-3.2,0-5.7,1-7.4,3c-1.7,2-2.6,4.8-2.6,8.3c0,3.6,1,6.4,2.9,8.4c1.9,2,4.5,3,7.7,3
			c1.7,0,3.2-0.2,4.4-0.7c1.2-0.5,2.3-1,3.4-1.6c0.7,0.6,1.3,1.3,1.7,2.1c0.4,0.8,0.6,1.8,0.6,2.9c0,1.7-1,3.2-2.9,4.4
			c-1.9,1.2-4.8,1.8-8.7,1.8c-2.8,0-5.4-0.4-7.9-1.2c-2.5-0.8-4.6-2-6.5-3.7c-1.8-1.7-3.3-3.7-4.4-6.3c-1.1-2.5-1.6-5.6-1.6-9.1
			c0-3.3,0.5-6.1,1.5-8.6c1-2.5,2.4-4.6,4.2-6.3c1.8-1.7,3.9-3,6.2-3.9c2.4-0.9,4.9-1.3,7.7-1.3c3.8,0,6.8,0.6,8.9,1.9
			c2.1,1.3,3.2,2.9,3.2,4.8c0,1.1-0.3,2-0.8,2.8c-0.5,0.8-1.2,1.4-1.9,1.9c-1.1-0.7-2.2-1.3-3.5-1.8C138.4,56.3,136.9,56,135.3,56z"
			/>
		<path class="st1" d="M179.1,86.3c-0.4,0.1-1.1,0.3-2,0.4c-0.9,0.1-1.8,0.2-2.8,0.2c-0.9,0-1.7-0.1-2.5-0.2
			c-0.7-0.1-1.3-0.4-1.9-0.8c-0.5-0.4-0.9-0.9-1.2-1.5c-0.3-0.6-0.4-1.5-0.4-2.5V67.9c0-1.7-0.4-2.9-1.3-3.6c-0.9-0.7-1.9-1-3.2-1
			c-0.8,0-1.6,0.1-2.4,0.3c-0.8,0.2-1.4,0.5-1.8,0.8v22c-0.4,0.1-1.1,0.3-2,0.4c-0.9,0.1-1.8,0.2-2.8,0.2c-0.9,0-1.7-0.1-2.5-0.2
			c-0.7-0.1-1.3-0.4-1.9-0.8c-0.5-0.4-0.9-0.9-1.2-1.5c-0.3-0.6-0.4-1.5-0.4-2.5V45.5c0.5-0.1,1.1-0.2,2-0.3
			c0.9-0.1,1.8-0.2,2.7-0.2c0.9,0,1.7,0.1,2.5,0.2c0.7,0.1,1.3,0.4,1.9,0.8c0.5,0.4,0.9,0.9,1.2,1.5c0.3,0.6,0.4,1.5,0.4,2.5v6.2
			c0.5-0.2,1.4-0.4,2.5-0.7c1.1-0.3,2.3-0.4,3.7-0.4c4.1,0,7.4,1,9.7,3.1c2.3,2.1,3.5,5.2,3.5,9.3V86.3z"/>
		<path class="st1" d="M183.5,47.4c0-1.6,0.5-2.9,1.6-4c1.1-1.1,2.5-1.6,4.2-1.6s3.2,0.5,4.2,1.6c1.1,1.1,1.6,2.4,1.6,4
			c0,1.6-0.5,2.9-1.6,4c-1.1,1.1-2.5,1.6-4.2,1.6s-3.2-0.5-4.2-1.6C184,50.3,183.5,49,183.5,47.4z M194.7,86.3
			c-0.5,0.1-1.1,0.2-2,0.3c-0.9,0.1-1.8,0.2-2.7,0.2c-0.9,0-1.7-0.1-2.5-0.2c-0.7-0.1-1.3-0.4-1.9-0.8c-0.5-0.4-0.9-0.9-1.2-1.5
			c-0.3-0.6-0.4-1.5-0.4-2.5V56.3c0.5-0.1,1.1-0.2,2-0.3c0.9-0.1,1.8-0.2,2.7-0.2c0.9,0,1.7,0.1,2.5,0.2c0.7,0.1,1.3,0.4,1.9,0.8
			c0.5,0.4,0.9,0.9,1.2,1.5c0.3,0.6,0.4,1.5,0.4,2.5V86.3z"/>
		<path class="st1" d="M210.4,86.3c-0.5,0.1-1.1,0.2-2,0.3c-0.9,0.1-1.8,0.2-2.7,0.2c-0.9,0-1.7-0.1-2.5-0.2
			c-0.7-0.1-1.3-0.4-1.9-0.8c-0.5-0.4-0.9-0.9-1.2-1.5c-0.3-0.6-0.4-1.5-0.4-2.5V45.5c0.5-0.1,1.1-0.2,2-0.3
			c0.9-0.1,1.8-0.2,2.7-0.2c0.9,0,1.7,0.1,2.5,0.2c0.7,0.1,1.3,0.4,1.9,0.8c0.5,0.4,0.9,0.9,1.2,1.5c0.3,0.6,0.4,1.5,0.4,2.5V86.3z"
			/>
		<path class="st1" d="M226,86.3c-0.5,0.1-1.1,0.2-2,0.3c-0.9,0.1-1.8,0.2-2.7,0.2c-0.9,0-1.7-0.1-2.5-0.2c-0.7-0.1-1.3-0.4-1.9-0.8
			c-0.5-0.4-0.9-0.9-1.2-1.5c-0.3-0.6-0.4-1.5-0.4-2.5V45.5c0.5-0.1,1.1-0.2,2-0.3c0.9-0.1,1.8-0.2,2.7-0.2c0.9,0,1.7,0.1,2.5,0.2
			c0.7,0.1,1.3,0.4,1.9,0.8c0.5,0.4,0.9,0.9,1.2,1.5c0.3,0.6,0.4,1.5,0.4,2.5V86.3z"/>
		<path class="st1" d="M229.8,57.1c-0.3-0.5-0.6-1.1-0.8-1.9c-0.3-0.8-0.4-1.6-0.4-2.5c0-1.6,0.4-2.8,1.1-3.5
			c0.7-0.7,1.7-1.1,2.9-1.1H260c0.3,0.5,0.6,1.1,0.8,1.9s0.4,1.6,0.4,2.5c0,1.6-0.4,2.8-1.1,3.5c-0.7,0.7-1.7,1.1-2.9,1.1h-7v29
			c-0.5,0.1-1.2,0.3-2.2,0.4c-1,0.1-2,0.2-2.9,0.2c-1,0-1.8-0.1-2.5-0.2c-0.7-0.1-1.3-0.4-1.9-0.8c-0.5-0.4-0.9-0.9-1.1-1.6
			c-0.3-0.7-0.4-1.5-0.4-2.6V57.1H229.8z"/>
		<path class="st1" d="M263.2,47.4c0-1.6,0.5-2.9,1.6-4c1.1-1.1,2.5-1.6,4.2-1.6s3.2,0.5,4.2,1.6c1.1,1.1,1.6,2.4,1.6,4
			c0,1.6-0.5,2.9-1.6,4c-1.1,1.1-2.5,1.6-4.2,1.6s-3.2-0.5-4.2-1.6C263.7,50.3,263.2,49,263.2,47.4z M274.3,86.3
			c-0.5,0.1-1.1,0.2-2,0.3c-0.9,0.1-1.8,0.2-2.7,0.2c-0.9,0-1.7-0.1-2.5-0.2c-0.7-0.1-1.3-0.4-1.9-0.8c-0.5-0.4-0.9-0.9-1.2-1.5
			c-0.3-0.6-0.4-1.5-0.4-2.5V56.3c0.5-0.1,1.1-0.2,2-0.3c0.9-0.1,1.8-0.2,2.7-0.2c0.9,0,1.7,0.1,2.5,0.2c0.7,0.1,1.3,0.4,1.9,0.8
			c0.5,0.4,0.9,0.9,1.2,1.5c0.3,0.6,0.4,1.5,0.4,2.5V86.3z"/>
		<path class="st1" d="M293.8,55c1.7,0,3.4,0.2,5.1,0.7c1.7,0.5,3.1,1.2,4.3,2.2c1.3-0.8,2.7-1.5,4.2-2.1c1.6-0.5,3.5-0.8,5.7-0.8
			c1.6,0,3.1,0.2,4.7,0.6c1.5,0.4,2.9,1.1,4.1,2c1.2,0.9,2.1,2.1,2.9,3.6c0.7,1.5,1.1,3.3,1.1,5.4v19.8c-0.4,0.1-1.1,0.3-2,0.4
			c-0.9,0.1-1.8,0.2-2.8,0.2c-0.9,0-1.7-0.1-2.5-0.2c-0.7-0.1-1.3-0.4-1.9-0.8c-0.5-0.4-0.9-0.9-1.2-1.5c-0.3-0.6-0.4-1.5-0.4-2.5
			v-15c0-1.3-0.4-2.2-1.1-2.7c-0.7-0.6-1.7-0.8-2.9-0.8c-0.6,0-1.2,0.1-1.9,0.4c-0.7,0.3-1.2,0.6-1.5,0.8c0,0.2,0.1,0.3,0.1,0.5
			s0,0.3,0,0.4v20.9c-0.5,0.1-1.1,0.3-2,0.4c-0.9,0.1-1.8,0.2-2.7,0.2c-0.9,0-1.7-0.1-2.5-0.2c-0.7-0.1-1.3-0.4-1.9-0.8
			c-0.5-0.4-0.9-0.9-1.2-1.5c-0.3-0.6-0.4-1.5-0.4-2.5v-15c0-1.3-0.4-2.2-1.2-2.7c-0.8-0.6-1.7-0.8-2.8-0.8c-0.8,0-1.4,0.1-1.9,0.3
			c-0.5,0.2-1,0.5-1.4,0.7v22c-0.4,0.1-1.1,0.3-2,0.4c-0.9,0.1-1.8,0.2-2.8,0.2c-0.9,0-1.7-0.1-2.5-0.2c-0.7-0.1-1.3-0.4-1.9-0.8
			c-0.5-0.4-0.9-0.9-1.2-1.5c-0.3-0.6-0.4-1.5-0.4-2.5v-19c0-1.1,0.2-2,0.7-2.7c0.5-0.7,1.1-1.3,2-1.9c1.4-1,3.2-1.8,5.3-2.4
			C289.3,55.3,291.5,55,293.8,55z"/>
		<path class="st1" d="M346.5,87.4c-2.5,0-4.8-0.3-6.9-1c-2.1-0.7-4-1.7-5.5-3.1s-2.8-3.1-3.7-5.2c-0.9-2.1-1.3-4.5-1.3-7.3
			c0-2.8,0.4-5.1,1.3-7.1c0.9-2,2.1-3.6,3.5-4.9c1.5-1.3,3.1-2.2,5-2.8c1.9-0.6,3.8-0.9,5.8-0.9c2.2,0,4.2,0.3,6.1,1
			c1.8,0.7,3.4,1.6,4.7,2.8c1.3,1.2,2.3,2.6,3.1,4.2c0.7,1.6,1.1,3.4,1.1,5.3c0,1.4-0.4,2.5-1.2,3.3c-0.8,0.8-1.9,1.2-3.3,1.4
			l-15.5,2.3c0.5,1.4,1.4,2.4,2.8,3.1s3.1,1,4.9,1c1.7,0,3.3-0.2,4.9-0.7c1.5-0.4,2.8-1,3.7-1.5c0.7,0.4,1.2,1,1.7,1.8
			c0.5,0.8,0.7,1.5,0.7,2.4c0,1.9-0.9,3.3-2.6,4.2c-1.3,0.7-2.8,1.2-4.5,1.4S347.9,87.4,346.5,87.4z M344.7,62.7
			c-1,0-1.9,0.2-2.6,0.5c-0.7,0.3-1.3,0.8-1.8,1.3c-0.5,0.5-0.8,1.1-1,1.8c-0.2,0.6-0.4,1.3-0.4,2l10.7-1.8
			c-0.1-0.8-0.6-1.7-1.4-2.5C347.4,63.2,346.2,62.7,344.7,62.7z"/>
	</g>
	<g>
		<path class="st1" d="M59.8,59.7h-2.3c-0.5,0-0.9,0.4-0.9,0.9v12c0,0.5,0.4,0.9,0.9,0.9h2.3c0.5,0,0.9-0.4,0.9-0.9v-12
			C60.6,60,60.2,59.7,59.8,59.7z"/>
		<path class="st1" d="M51.8,59.7h-2.3c-0.5,0-0.9,0.4-0.9,0.9v12c0,0.5,0.4,0.9,0.9,0.9h2.3c0.5,0,0.9-0.4,0.9-0.9v-12
			C52.7,60,52.3,59.7,51.8,59.7z"/>
		<path class="st1" d="M82.1,51.7c-4.8,0-9.1,2.3-11.9,5.9c1.5,2.6,2.4,5.7,2.4,9s-0.9,6.3-2.4,9c2.7,3.6,7,5.9,11.9,5.9
			c8.2,0,14.9-6.7,14.9-14.9C97,58.3,90.3,51.7,82.1,51.7z M89.5,68.5l-9,5.2c-1.5,0.9-2.8,0.2-2.8-1.6V61.7c0-1.8,1.3-2.5,2.8-1.6
			l9,5.2C91,66.2,91,67.6,89.5,68.5z"/>
		<path class="st1" d="M82.5,40.5H53.3c-13.8,0-25,11.2-25,25l0,0c0,13.8,11.2,25,25,25h29.2c13.8,0,25-11.2,25-25l0,0
			C107.5,51.8,96.3,40.5,82.5,40.5z M82.1,84.5c-5.5,0-10.4-2.5-13.7-6.4c-3.3,3.9-8.2,6.4-13.7,6.4c-10,0-18-8.1-18-18
			c0-9.9,8.1-18,18-18c5.5,0,10.4,2.5,13.7,6.4c3.3-3.9,8.2-6.4,13.7-6.4c9.9,0,18,8.1,18,18S92.1,84.5,82.1,84.5z"/>
	</g>
</g>
</svg>
